<svg width="20.000000" height="20.000000" viewBox="0 0 20 20" fill="none" xmlns="http://www.w3.org/2000/svg" xmlns:xlink="http://www.w3.org/1999/xlink">
	<desc>
			Created with Pixso.
	</desc>
	<defs/>
	<path id="arrow / circle_right" d="M10 0C4.47754 0 0 4.47717 0 10C0 15.5228 4.47754 20 10 20C15.5225 20 20 15.5228 20 10C20 4.47717 15.5225 0 10 0ZM10 2C5.58203 2 2 5.58167 2 10C2 14.4183 5.58203 18 10 18C14.418 18 18 14.4183 18 10C18 5.58167 14.418 2 10 2ZM5 11L11.1699 11L8.58984 13.59L10 15L15 10L10 5L8.58984 6.41003L11.1699 9L5 9L5 11Z" fill="#2E3A59" fill-opacity="1.000000" fill-rule="evenodd"/>
</svg>
